<svg width="512" height="512" viewBox="0 0 512 512" xmlns="http://www.w3.org/2000/svg">
  <defs>
    <linearGradient id="bgGradient" x1="0%" y1="0%" x2="100%" y2="100%">
      <stop offset="0%" style="stop-color:#4CAF50;stop-opacity:1" />
      <stop offset="100%" style="stop-color:#45a049;stop-opacity:1" />
    </linearGradient>
  </defs>
  
  <!-- Fundo circular -->
  <circle cx="256" cy="256" r="204.8" fill="url(#bgGradient)" stroke="#fff" stroke-width="10.24"/>
  
  <!-- Carrinho de compras -->
  <g transform="translate(256, 256)">
    <!-- Base do carrinho -->
    <rect x="-60" y="-20" width="120" height="80" rx="8" fill="rgba(255,255,255,0.9)" stroke="#4CAF50" stroke-width="3"/>
    
    <!-- Rodas -->
    <circle cx="-40" cy="70" r="12" fill="#666"/>
    <circle cx="40" cy="70" r="12" fill="#666"/>
    
    <!-- Cabo do carrinho -->
    <rect x="60" y="-40" width="8" height="60" rx="4" fill="#4CAF50"/>
    <rect x="65" y="-45" width="20" height="8" rx="4" fill="#4CAF50"/>
    
    <!-- Itens no carrinho -->
    <circle cx="-30" cy="0" r="8" fill="#FF9800"/>
    <circle cx="0" cy="-10" r="6" fill="#2196F3"/>
    <circle cx="20" cy="5" r="7" fill="#E91E63"/>
    <circle cx="-10" cy="15" r="5" fill="#9C27B0"/>
    
    <!-- Lista de compras -->
    <rect x="-50" y="-60" width="100" height="20" rx="10" fill="#fff" stroke="#4CAF50" stroke-width="2"/>
    <rect x="-45" y="-55" width="90" height="2" fill="#4CAF50"/>
    <rect x="-40" y="-50" width="80" height="2" fill="#4CAF50"/>
    <rect x="-35" y="-45" width="70" height="2" fill="#4CAF50"/>
  </g>
  
  <!-- Texto "Lista" -->
  <text x="256" y="384" font-family="Arial, sans-serif" font-size="30.72" font-weight="bold" text-anchor="middle" fill="#fff">Lista</text>
</svg>